<svg width="512" height="512" xmlns="http://www.w3.org/2000/svg">

 <g>
  <title>background</title>
  <rect fill="none" id="canvas_background" height="402" width="582" y="-1" x="-1"/>
 </g>
 <g>
  <title>Layer 1</title>
  <path stroke="null" fill="#f54024" id="svg_1" d="m503.972645,429.343288l-173.040064,-173.699516l173.435735,-171.457381c7.122076,-7.122076 7.122076,-18.728422 0,-25.850497l-49.32697,-49.59075c-3.429148,-3.429148 -8.045308,-5.275612 -12.925249,-5.275612c-4.879941,0 -9.496101,1.978354 -12.925249,5.275612l-172.644393,170.92982l-172.908174,-170.797929c-3.429148,-3.429148 -8.045308,-5.275612 -12.925249,-5.275612c-4.879941,0 -9.496101,1.978354 -12.925249,5.275612l-49.195079,49.59075c-7.122076,7.122076 -7.122076,18.728422 0,25.850497l173.435735,171.457381l-172.908174,173.567625c-3.429148,3.429148 -5.407502,8.045308 -5.407502,12.925249c0,4.879941 1.846464,9.496101 5.407502,12.925249l49.32697,49.59075c3.561038,3.561038 8.177198,5.407502 12.925249,5.407502c4.61616,0 9.364211,-1.714574 12.925249,-5.407502l172.248722,-173.040064l172.380613,172.908174c3.561038,3.561038 8.177198,5.407502 12.925249,5.407502c4.61616,0 9.364211,-1.714574 12.925249,-5.407502l49.32697,-49.59075c3.429148,-3.429148 5.407502,-8.045308 5.407502,-12.925249c-0.13189,-4.748051 -2.110245,-9.364211 -5.539392,-12.793358z"/>
 </g>
</svg>